<svg width="547" height="150" viewBox="0 0 547 150" fill="none" xmlns="http://www.w3.org/2000/svg">
<rect width="150" height="150" rx="25" fill="#03449D"/>
<path d="M63.6 123.3C62.7333 123.3 61.9667 123.1 61.3 122.7C60.6333 122.3 60.3 121.567 60.3 120.5C60.3 120.367 60.3333 120.033 60.4 119.5C60.5333 118.967 60.8333 117.5 61.3 115.1H61.9C63.0333 115.433 63.9333 115.667 64.6 115.8C65.2667 115.933 66.0667 116 67 116C68.4667 116 69.7 115.667 70.7 115C71.7667 114.333 72.5667 112.933 73.1 110.8C73.7 108.667 74 105.367 74 100.9V45.6L66 41.6V40H91V41.6L83 45.6V82C83 89.4667 82.4 96.2 81.2 102.2C80 108.133 77.9667 112.7 75.1 115.9C73.1667 118.033 71.6 119.633 70.4 120.7C69.2 121.767 68.1 122.467 67.1 122.8C66.1 123.133 64.9333 123.3 63.6 123.3Z" fill="white"/>
<path d="M61.3 122.7L61.8145 121.843L61.8145 121.843L61.3 122.7ZM60.4 119.5L59.4299 119.257L59.4152 119.316L59.4077 119.376L60.4 119.5ZM61.3 115.1V114.1H60.4757L60.3184 114.909L61.3 115.1ZM61.9 115.1L62.1822 114.141L62.044 114.1H61.9V115.1ZM64.6 115.8L64.4039 116.781L64.4039 116.781L64.6 115.8ZM70.7 115L70.17 114.152L70.1575 114.16L70.1453 114.168L70.7 115ZM73.1 110.8L72.1373 110.529L72.1334 110.543L72.1299 110.557L73.1 110.8ZM74 45.6H75V44.982L74.4472 44.7056L74 45.6ZM66 41.6H65V42.218L65.5528 42.4944L66 41.6ZM66 40V39H65V40H66ZM91 40H92V39H91V40ZM91 41.6L91.4472 42.4944L92 42.218V41.6H91ZM83 45.6L82.5528 44.7056L82 44.982V45.6H83ZM81.2 102.2L82.1802 102.398L82.1806 102.396L81.2 102.2ZM75.1 115.9L75.841 116.572L75.8448 116.567L75.1 115.9ZM70.4 120.7L69.7356 119.953L69.7356 119.953L70.4 120.7ZM67.1 122.8L67.4162 123.749L67.4162 123.749L67.1 122.8ZM63.6 122.3C62.8932 122.3 62.3084 122.139 61.8145 121.843L60.7855 123.557C61.6249 124.061 62.5734 124.3 63.6 124.3V122.3ZM61.8145 121.843C61.5561 121.687 61.3 121.362 61.3 120.5H59.3C59.3 121.772 59.7105 122.913 60.7855 123.557L61.8145 121.843ZM61.3 120.5C61.3 120.502 61.3002 120.483 61.3037 120.434C61.307 120.388 61.3123 120.327 61.32 120.25C61.3355 120.094 61.3594 119.887 61.3923 119.624L59.4077 119.376C59.344 119.886 59.3 120.29 59.3 120.5H61.3ZM61.3701 119.743C61.5115 119.177 61.8172 117.679 62.2816 115.291L60.3184 114.909C59.8495 117.321 59.5552 118.756 59.4299 119.257L61.3701 119.743ZM61.3 116.1H61.9V114.1H61.3V116.1ZM61.6178 116.059C62.7622 116.396 63.6947 116.639 64.4039 116.781L64.7961 114.819C64.172 114.695 63.3045 114.471 62.1822 114.141L61.6178 116.059ZM64.4039 116.781C65.154 116.931 66.0233 117 67 117V115C66.11 115 65.3794 114.936 64.7961 114.819L64.4039 116.781ZM67 117C68.6202 117 70.0573 116.63 71.2547 115.832L70.1453 114.168C69.3427 114.703 68.3132 115 67 115V117ZM71.23 115.848C72.6313 114.972 73.5173 113.254 74.0701 111.043L72.1299 110.557C71.6161 112.613 70.902 113.695 70.17 114.152L71.23 115.848ZM74.0627 111.071C74.7015 108.799 75 105.385 75 100.9H73C73 105.348 72.6985 108.534 72.1373 110.529L74.0627 111.071ZM75 100.9V45.6H73V100.9H75ZM74.4472 44.7056L66.4472 40.7056L65.5528 42.4944L73.5528 46.4944L74.4472 44.7056ZM67 41.6V40H65V41.6H67ZM66 41H91V39H66V41ZM90 40V41.6H92V40H90ZM90.5528 40.7056L82.5528 44.7056L83.4472 46.4944L91.4472 42.4944L90.5528 40.7056ZM82 45.6V82H84V45.6H82ZM82 82C82 89.4146 81.4041 96.0807 80.2194 102.004L82.1806 102.396C83.3959 96.3193 84 89.5187 84 82H82ZM80.2198 102.002C79.0414 107.828 77.0641 112.209 74.3552 115.233L75.8448 116.567C78.8692 113.191 80.9586 108.438 82.1802 102.398L80.2198 102.002ZM74.359 115.228C72.4341 117.352 70.8956 118.921 69.7356 119.953L71.0644 121.447C72.3044 120.345 73.8992 118.714 75.841 116.572L74.359 115.228ZM69.7356 119.953C68.5891 120.972 67.6061 121.577 66.7838 121.851L67.4162 123.749C68.5939 123.356 69.8109 122.562 71.0644 121.447L69.7356 119.953ZM66.7838 121.851C65.9086 122.143 64.853 122.3 63.6 122.3V124.3C65.0137 124.3 66.2914 124.124 67.4162 123.749L66.7838 121.851Z" fill="white"/>
<path d="M190.22 110.11C189.613 110.11 189.077 109.97 188.61 109.69C188.143 109.41 187.91 108.897 187.91 108.15C187.91 108.057 187.933 107.823 187.98 107.45C188.073 107.077 188.283 106.05 188.61 104.37H189.03C189.823 104.603 190.453 104.767 190.92 104.86C191.387 104.953 191.947 105 192.6 105C193.627 105 194.49 104.767 195.19 104.3C195.937 103.833 196.497 102.853 196.87 101.36C197.29 99.8667 197.5 97.5567 197.5 94.43V55.72L191.9 52.92V51.8H209.4V52.92L203.8 55.72V81.2C203.8 86.4267 203.38 91.14 202.54 95.34C201.7 99.4933 200.277 102.69 198.27 104.93C196.917 106.423 195.82 107.543 194.98 108.29C194.14 109.037 193.37 109.527 192.67 109.76C191.97 109.993 191.153 110.11 190.22 110.11ZM231.808 98.7C228.728 98.7 226.022 97.9767 223.688 96.53C221.402 95.0833 219.605 93.1233 218.298 90.65C217.038 88.1767 216.408 85.3767 216.408 82.25C216.408 79.1233 217.038 76.3233 218.298 73.85C219.605 71.3767 221.402 69.4167 223.688 67.97C226.022 66.5233 228.728 65.8 231.808 65.8C234.888 65.8 237.572 66.5233 239.858 67.97C242.192 69.4167 243.988 71.3767 245.248 73.85C246.555 76.3233 247.208 79.1233 247.208 82.25C247.208 85.3767 246.555 88.1767 245.248 90.65C243.988 93.1233 242.192 95.0833 239.858 96.53C237.572 97.9767 234.888 98.7 231.808 98.7ZM232.788 95.69C234.655 95.69 236.195 95.1067 237.408 93.94C238.622 92.7733 239.508 91.28 240.068 89.46C240.628 87.5933 240.908 85.6567 240.908 83.65C240.908 81.1767 240.558 78.7967 239.858 76.51C239.205 74.2233 238.132 72.3567 236.638 70.91C235.192 69.4633 233.302 68.74 230.968 68.74C229.055 68.74 227.492 69.3233 226.278 70.49C225.065 71.6567 224.155 73.15 223.548 74.97C222.988 76.79 222.708 78.7267 222.708 80.78C222.708 83.2533 223.058 85.6333 223.758 87.92C224.458 90.2067 225.555 92.0733 227.048 93.52C228.542 94.9667 230.455 95.69 232.788 95.69ZM257.579 98.7V53.48L253.379 49.84V49.35L262.759 45.5H263.179V70.14H263.459C265.232 68.6467 266.936 67.55 268.569 66.85C270.249 66.15 272.046 65.8 273.959 65.8C276.339 65.8 278.439 66.4067 280.259 67.62C282.079 68.8333 283.502 70.56 284.529 72.8C285.602 74.9933 286.139 77.63 286.139 80.71C286.139 84.5367 285.416 87.8033 283.969 90.51C282.522 93.17 280.562 95.2 278.089 96.6C275.616 98 272.839 98.7 269.759 98.7C267.846 98.7 266.049 98.5133 264.369 98.14C262.736 97.8133 261.196 97.3933 259.749 96.88L257.999 98.7H257.579ZM270.109 70.63C268.989 70.63 267.822 70.8167 266.609 71.19C265.442 71.5167 264.299 72.03 263.179 72.73V92.47C264.486 93.4967 265.792 94.2433 267.099 94.71C268.452 95.13 269.946 95.34 271.579 95.34C273.212 95.34 274.706 94.92 276.059 94.08C277.412 93.1933 278.486 91.7933 279.279 89.88C280.119 87.9667 280.539 85.4467 280.539 82.32C280.539 78.26 279.512 75.2967 277.459 73.43C275.452 71.5633 273.002 70.63 270.109 70.63ZM320.479 98V96.88L327.479 94.08V55.65H316.069L311.309 65.94H310.189V51.8H351.069V65.94H349.949L345.189 55.65H333.779V94.08L340.779 96.88V98H320.479ZM355.728 98V96.88L360.138 94.64V73.78L355.938 70.14V69.65L364.618 65.8H365.038L365.668 71.75H365.948C367.021 70.0233 368.001 68.74 368.888 67.9C369.821 67.0133 370.685 66.4533 371.478 66.22C372.271 65.94 373.065 65.8 373.858 65.8C374.231 65.8 374.651 65.87 375.118 66.01C375.631 66.15 376.051 66.29 376.378 66.43C376.891 66.6633 377.358 66.9433 377.778 67.27C378.245 67.5967 378.478 67.97 378.478 68.39C378.478 68.81 378.385 69.23 378.198 69.65L376.798 73.08H376.308L373.648 72.03C373.135 71.7967 372.621 71.6567 372.108 71.61C371.641 71.5633 371.175 71.54 370.708 71.54C368.748 71.54 367.091 72.5433 365.738 74.55V94.64L370.708 96.88V98H355.728ZM391.514 98.7C389.32 98.7 387.5 98.07 386.054 96.81C384.607 95.5033 383.884 93.7067 383.884 91.42C383.884 89.1333 384.724 87.15 386.404 85.47C388.13 83.79 391 82.4833 395.014 81.55L401.664 80.01V74.9C401.664 73.3133 401.01 71.96 399.704 70.84C398.444 69.6733 396.997 69.09 395.364 69.09C393.59 69.09 392.354 69.58 391.654 70.56C390.954 71.4933 390.604 72.7533 390.604 74.34V76.3L390.254 76.65H386.614C385.914 76.65 385.424 76.5333 385.144 76.3C384.91 76.0667 384.794 75.53 384.794 74.69C384.794 73.6633 385.097 72.6133 385.704 71.54C386.31 70.4667 387.244 69.5333 388.504 68.74C389.81 67.9 391.164 67.2 392.564 66.64C394.01 66.08 395.55 65.8 397.184 65.8C398.817 65.8 400.404 66.0333 401.944 66.5C403.53 66.9667 404.814 67.76 405.794 68.88C406.774 69.9533 407.264 71.47 407.264 73.43V93.31C407.59 93.6367 408.057 93.9167 408.664 94.15C409.27 94.3833 410.11 94.5 411.184 94.5H413.844L414.054 94.64V94.85C413.494 95.8767 412.654 96.7867 411.534 97.58C410.46 98.3267 409.13 98.7 407.544 98.7C406.097 98.7 404.907 98.3267 403.974 97.58C403.087 96.7867 402.457 95.76 402.084 94.5H401.664C400.45 95.7133 398.934 96.7167 397.114 97.51C395.34 98.3033 393.474 98.7 391.514 98.7ZM389.344 90.02C389.344 92.9133 391.094 94.36 394.594 94.36C395.714 94.36 396.81 94.2433 397.884 94.01C399.004 93.7767 400.264 93.3567 401.664 92.75V82.39C397.93 83.09 395.2 83.8367 393.474 84.63C391.747 85.3767 390.627 86.1933 390.114 87.08C389.6 87.9667 389.344 88.9467 389.344 90.02ZM432.972 98.7C428.445 98.7 424.875 97.3233 422.262 94.57C419.648 91.8167 418.342 88.1767 418.342 83.65C418.342 80.15 419.042 77.07 420.442 74.41C421.888 71.7033 423.825 69.6033 426.252 68.11C428.678 66.57 431.408 65.8 434.442 65.8C436.308 65.8 438.128 66.1267 439.902 66.78C441.675 67.3867 443.028 68.2033 443.962 69.23C444.708 70.1167 445.082 70.8167 445.082 71.33C445.082 71.9833 444.778 72.5433 444.172 73.01L441.512 75.25H441.022L438.642 72.03C437.942 71.0967 437.055 70.35 435.982 69.79C434.955 69.1833 433.672 68.88 432.132 68.88C429.565 68.88 427.535 69.9067 426.042 71.96C424.595 73.9667 423.872 76.79 423.872 80.43C423.872 82.67 424.245 84.7933 424.992 86.8C425.738 88.76 426.975 90.37 428.702 91.63C430.475 92.8433 432.902 93.45 435.982 93.45C438.548 93.45 441.558 92.5167 445.012 90.65H445.222V91.35C444.148 93.3567 442.538 95.0833 440.392 96.53C438.292 97.9767 435.818 98.7 432.972 98.7ZM451.698 98V96.88L456.108 94.64V53.48L451.908 49.84V49.35L461.288 45.5H461.708V80.15L472.978 70.56V70.14L469.548 67.62V66.5H482.848V67.62L478.368 70.07L466.818 78.96L480.958 94.5L485.438 96.88V98H476.198L473.538 94.36L461.708 81.2V94.85L466.678 96.88V98H451.698ZM504.134 98.7C499.607 98.7 496.037 97.3233 493.424 94.57C490.811 91.8167 489.504 88.1767 489.504 83.65C489.504 80.15 490.181 77.07 491.534 74.41C492.934 71.7033 494.754 69.6033 496.994 68.11C499.281 66.57 501.754 65.8 504.414 65.8C508.101 65.8 510.994 67.0833 513.094 69.65C515.241 72.2167 516.314 75.9033 516.314 80.71L515.964 81.06H495.034C495.081 83.2067 495.501 85.2367 496.294 87.15C497.087 89.0167 498.347 90.5333 500.074 91.7C501.847 92.8667 504.204 93.45 507.144 93.45C509.711 93.45 512.721 92.5167 516.174 90.65H516.384V91.35C515.311 93.3567 513.701 95.0833 511.554 96.53C509.454 97.9767 506.981 98.7 504.134 98.7ZM503.294 68.88C501.054 68.88 499.211 69.6733 497.764 71.26C496.364 72.8 495.501 74.9933 495.174 77.84H510.994C510.481 74.6667 509.571 72.38 508.264 70.98C507.004 69.58 505.347 68.88 503.294 68.88ZM523.55 98V96.88L527.96 94.64V73.78L523.76 70.14V69.65L532.44 65.8H532.86L533.49 71.75H533.77C534.843 70.0233 535.823 68.74 536.71 67.9C537.643 67.0133 538.507 66.4533 539.3 66.22C540.093 65.94 540.887 65.8 541.68 65.8C542.053 65.8 542.473 65.87 542.94 66.01C543.453 66.15 543.873 66.29 544.2 66.43C544.713 66.6633 545.18 66.9433 545.6 67.27C546.067 67.5967 546.3 67.97 546.3 68.39C546.3 68.81 546.207 69.23 546.02 69.65L544.62 73.08H544.13L541.47 72.03C540.957 71.7967 540.443 71.6567 539.93 71.61C539.463 71.5633 538.997 71.54 538.53 71.54C536.57 71.54 534.913 72.5433 533.56 74.55V94.64L538.53 96.88V98H523.55Z" fill="#03449D"/>
<path d="M188.61 109.69L189.124 108.833L189.124 108.833L188.61 109.69ZM187.98 107.45L187.01 107.207L186.995 107.266L186.988 107.326L187.98 107.45ZM188.61 104.37V103.37H187.786L187.628 104.179L188.61 104.37ZM189.03 104.37L189.312 103.411L189.174 103.37H189.03V104.37ZM190.92 104.86L190.724 105.841L190.724 105.841L190.92 104.86ZM195.19 104.3L194.66 103.452L194.648 103.46L194.635 103.468L195.19 104.3ZM196.87 101.36L195.907 101.089L195.903 101.103L195.9 101.117L196.87 101.36ZM197.5 55.72H198.5V55.102L197.947 54.8256L197.5 55.72ZM191.9 52.92H190.9V53.538L191.453 53.8144L191.9 52.92ZM191.9 51.8V50.8H190.9V51.8H191.9ZM209.4 51.8H210.4V50.8H209.4V51.8ZM209.4 52.92L209.847 53.8144L210.4 53.538V52.92H209.4ZM203.8 55.72L203.353 54.8256L202.8 55.102V55.72H203.8ZM202.54 95.34L203.52 95.5382L203.521 95.5361L202.54 95.34ZM198.27 104.93L199.011 105.602L199.015 105.597L198.27 104.93ZM194.98 108.29L194.316 107.543L194.316 107.543L194.98 108.29ZM192.67 109.76L192.986 110.709L192.986 110.709L192.67 109.76ZM190.22 109.11C189.773 109.11 189.418 109.009 189.124 108.833L188.096 110.547C188.735 110.931 189.453 111.11 190.22 111.11V109.11ZM189.124 108.833C189.066 108.797 188.91 108.692 188.91 108.15H186.91C186.91 109.102 187.221 110.023 188.096 110.547L189.124 108.833ZM188.91 108.15C188.91 108.159 188.911 108.123 188.923 108.005C188.933 107.899 188.949 107.757 188.972 107.574L186.988 107.326C186.944 107.676 186.91 107.98 186.91 108.15H188.91ZM188.95 107.693C189.051 107.287 189.267 106.229 189.592 104.561L187.628 104.179C187.299 105.871 187.095 106.866 187.01 107.207L188.95 107.693ZM188.61 105.37H189.03V103.37H188.61V105.37ZM188.748 105.329C189.552 105.566 190.215 105.739 190.724 105.841L191.116 103.879C190.692 103.795 190.095 103.641 189.312 103.411L188.748 105.329ZM190.724 105.841C191.274 105.951 191.903 106 192.6 106V104C191.99 104 191.499 103.956 191.116 103.879L190.724 105.841ZM192.6 106C193.78 106 194.847 105.73 195.745 105.132L194.635 103.468C194.133 103.803 193.473 104 192.6 104V106ZM195.72 105.148C196.801 104.472 197.447 103.174 197.84 101.603L195.9 101.117C195.546 102.533 195.072 103.195 194.66 103.452L195.72 105.148ZM197.833 101.631C198.291 99.9993 198.5 97.5752 198.5 94.43H196.5C196.5 97.5381 196.289 99.734 195.907 101.089L197.833 101.631ZM198.5 94.43V55.72H196.5V94.43H198.5ZM197.947 54.8256L192.347 52.0256L191.453 53.8144L197.053 56.6144L197.947 54.8256ZM192.9 52.92V51.8H190.9V52.92H192.9ZM191.9 52.8H209.4V50.8H191.9V52.8ZM208.4 51.8V52.92H210.4V51.8H208.4ZM208.953 52.0256L203.353 54.8256L204.247 56.6144L209.847 53.8144L208.953 52.0256ZM202.8 55.72V81.2H204.8V55.72H202.8ZM202.8 81.2C202.8 86.3746 202.384 91.0207 201.559 95.1439L203.521 95.5361C204.376 91.2593 204.8 86.4787 204.8 81.2H202.8ZM201.56 95.1418C200.741 99.1884 199.374 102.199 197.525 104.263L199.015 105.597C201.179 103.181 202.659 99.7983 203.52 95.5382L201.56 95.1418ZM197.529 104.258C196.184 105.742 195.116 106.831 194.316 107.543L195.644 109.037C196.524 108.255 197.649 107.104 199.011 105.602L197.529 104.258ZM194.316 107.543C193.529 108.242 192.876 108.637 192.354 108.811L192.986 110.709C193.864 110.416 194.751 109.832 195.644 109.037L194.316 107.543ZM192.354 108.811C191.779 109.003 191.073 109.11 190.22 109.11V111.11C191.234 111.11 192.161 110.984 192.986 110.709L192.354 108.811ZM223.688 96.53L223.154 97.3751L223.161 97.3799L223.688 96.53ZM218.298 90.65L217.407 91.1039L217.411 91.1105L217.414 91.1171L218.298 90.65ZM218.298 73.85L217.414 73.3829L217.411 73.3894L217.407 73.3961L218.298 73.85ZM223.688 67.97L223.161 67.1201L223.154 67.1249L223.688 67.97ZM239.858 67.97L239.324 68.8151L239.331 68.8199L239.858 67.97ZM245.248 73.85L244.357 74.3039L244.361 74.3105L244.364 74.3171L245.248 73.85ZM245.248 90.65L244.364 90.1829L244.361 90.1895L244.357 90.1961L245.248 90.65ZM239.858 96.53L239.331 95.6801L239.324 95.6849L239.858 96.53ZM237.408 93.94L238.101 94.6608L238.101 94.6608L237.408 93.94ZM240.068 89.46L241.024 89.7541L241.026 89.7473L240.068 89.46ZM239.858 76.51L238.897 76.7847L238.899 76.7937L238.902 76.8027L239.858 76.51ZM236.638 70.91L235.931 71.6171L235.937 71.6227L235.942 71.6282L236.638 70.91ZM226.278 70.49L226.971 71.2108L226.971 71.2108L226.278 70.49ZM223.548 74.97L222.6 74.6538L222.596 74.6648L222.592 74.6759L223.548 74.97ZM223.758 87.92L224.714 87.6273L224.714 87.6273L223.758 87.92ZM231.808 97.7C228.891 97.7 226.372 97.017 224.215 95.6801L223.161 97.3799C225.672 98.9363 228.565 99.7 231.808 99.7V97.7ZM224.223 95.6849C222.089 94.3348 220.41 92.5073 219.182 90.1829L217.414 91.1171C218.799 93.7393 220.714 95.8319 223.154 97.3751L224.223 95.6849ZM219.189 90.1961C218.009 87.8802 217.408 85.239 217.408 82.25H215.408C215.408 85.5143 216.067 88.4731 217.407 91.1039L219.189 90.1961ZM217.408 82.25C217.408 79.261 218.009 76.6197 219.189 74.3039L217.407 73.3961C216.067 76.0269 215.408 78.9857 215.408 82.25H217.408ZM219.182 74.3171C220.41 71.9927 222.089 70.1652 224.223 68.8151L223.154 67.1249C220.714 68.6681 218.799 70.7607 217.414 73.3829L219.182 74.3171ZM224.215 68.8199C226.372 67.483 228.891 66.8 231.808 66.8V64.8C228.565 64.8 225.672 65.5637 223.161 67.1201L224.215 68.8199ZM231.808 66.8C234.726 66.8 237.218 67.4831 239.324 68.8151L240.393 67.1249C237.925 65.5636 235.051 64.8 231.808 64.8V66.8ZM239.331 68.8199C241.508 70.1692 243.179 71.9915 244.357 74.3039L246.139 73.3961C244.797 70.7619 242.876 68.6641 240.385 67.1201L239.331 68.8199ZM244.364 74.3171C245.586 76.6302 246.208 79.2667 246.208 82.25H248.208C248.208 78.98 247.524 76.0164 246.132 73.3829L244.364 74.3171ZM246.208 82.25C246.208 85.2333 245.586 87.8698 244.364 90.1829L246.132 91.1171C247.524 88.4836 248.208 85.52 248.208 82.25H246.208ZM244.357 90.1961C243.179 92.5085 241.508 94.3308 239.331 95.6801L240.385 97.3799C242.876 95.8359 244.797 93.7381 246.139 91.1039L244.357 90.1961ZM239.324 95.6849C237.218 97.0169 234.726 97.7 231.808 97.7V99.7C235.051 99.7 237.925 98.9364 240.393 97.3751L239.324 95.6849ZM232.788 96.69C234.883 96.69 236.681 96.0268 238.101 94.6608L236.715 93.2192C235.709 94.1865 234.427 94.69 232.788 94.69V96.69ZM238.101 94.6608C239.452 93.3618 240.421 91.7147 241.024 89.7541L239.112 89.1659C238.596 90.8453 237.791 92.1849 236.715 93.2192L238.101 94.6608ZM241.026 89.7473C241.615 87.7847 241.908 85.7511 241.908 83.65H239.908C239.908 85.5623 239.642 87.402 239.11 89.1727L241.026 89.7473ZM241.908 83.65C241.908 81.0809 241.544 78.602 240.814 76.2173L238.902 76.8027C239.572 78.9913 239.908 81.2724 239.908 83.65H241.908ZM240.82 76.2353C240.125 73.8047 238.97 71.7771 237.334 70.1918L235.942 71.6282C237.293 72.9363 238.284 74.642 238.897 76.7847L240.82 76.2353ZM237.345 70.2029C235.684 68.5419 233.526 67.74 230.968 67.74V69.74C233.077 69.74 234.699 70.3848 235.931 71.6171L237.345 70.2029ZM230.968 67.74C228.835 67.74 227.011 68.3985 225.585 69.7692L226.971 71.2108C227.973 70.2481 229.275 69.74 230.968 69.74V67.74ZM225.585 69.7692C224.24 71.0628 223.25 72.7019 222.6 74.6538L224.497 75.2862C225.06 73.5981 225.89 72.2505 226.971 71.2108L225.585 69.7692ZM222.592 74.6759C222.001 76.5984 221.708 78.6348 221.708 80.78H223.708C223.708 78.8186 223.976 76.9816 224.504 75.2641L222.592 74.6759ZM221.708 80.78C221.708 83.3491 222.072 85.828 222.802 88.2127L224.714 87.6273C224.044 85.4387 223.708 83.1576 223.708 80.78H221.708ZM222.802 88.2127C223.544 90.6364 224.721 92.6574 226.352 94.2382L227.744 92.8018C226.389 91.4893 225.372 89.7769 224.714 87.6273L222.802 88.2127ZM226.352 94.2382C228.056 95.8883 230.23 96.69 232.788 96.69V94.69C230.68 94.69 229.027 94.045 227.744 92.8018L226.352 94.2382ZM257.579 98.7H256.579V99.7H257.579V98.7ZM257.579 53.48H258.579V53.0234L258.234 52.7243L257.579 53.48ZM253.379 49.84H252.379V50.2966L252.724 50.5957L253.379 49.84ZM253.379 49.35L252.999 48.4249L252.379 48.6795V49.35H253.379ZM262.759 45.5V44.5H262.562L262.379 44.5749L262.759 45.5ZM263.179 45.5H264.179V44.5H263.179V45.5ZM263.179 70.14H262.179V71.14H263.179V70.14ZM263.459 70.14V71.14H263.824L264.103 70.9049L263.459 70.14ZM268.569 66.85L268.185 65.9269L268.175 65.9309L268.569 66.85ZM284.529 72.8L283.62 73.2167L283.625 73.2282L283.631 73.2396L284.529 72.8ZM283.969 90.51L284.848 90.9878L284.851 90.9814L283.969 90.51ZM278.089 96.6L277.597 95.7297L277.597 95.7297L278.089 96.6ZM264.369 98.14L264.586 97.1638L264.576 97.1615L264.565 97.1594L264.369 98.14ZM259.749 96.88L260.084 95.9376L259.475 95.7218L259.028 96.1869L259.749 96.88ZM257.999 98.7V99.7H258.425L258.72 99.3931L257.999 98.7ZM266.609 71.19L266.879 72.153L266.891 72.1495L266.903 72.1458L266.609 71.19ZM263.179 72.73L262.649 71.882L262.179 72.1757V72.73H263.179ZM263.179 92.47H262.179V92.956L262.561 93.2563L263.179 92.47ZM267.099 94.71L266.763 95.6517L266.783 95.6588L266.803 95.6651L267.099 94.71ZM276.059 94.08L276.587 94.9296L276.597 94.9232L276.607 94.9165L276.059 94.08ZM279.279 89.88L278.363 89.478L278.359 89.4875L278.355 89.497L279.279 89.88ZM277.459 73.43L276.778 74.1622L276.786 74.1699L277.459 73.43ZM258.579 98.7V53.48H256.579V98.7H258.579ZM258.234 52.7243L254.034 49.0843L252.724 50.5957L256.924 54.2357L258.234 52.7243ZM254.379 49.84V49.35H252.379V49.84H254.379ZM253.759 50.2751L263.139 46.4251L262.379 44.5749L252.999 48.4249L253.759 50.2751ZM262.759 46.5H263.179V44.5H262.759V46.5ZM262.179 45.5V70.14H264.179V45.5H262.179ZM263.179 71.14H263.459V69.14H263.179V71.14ZM264.103 70.9049C265.823 69.4569 267.443 68.4206 268.963 67.7691L268.175 65.9309C266.429 66.6794 264.642 67.8365 262.815 69.3751L264.103 70.9049ZM268.954 67.7731C270.506 67.1264 272.171 66.8 273.959 66.8V64.8C271.921 64.8 269.993 65.1736 268.185 65.9269L268.954 67.7731ZM273.959 66.8C276.16 66.8 278.063 67.3579 279.704 68.452L280.814 66.7879C278.815 65.4554 276.518 64.8 273.959 64.8V66.8ZM279.704 68.452C281.351 69.5499 282.661 71.1234 283.62 73.2167L285.438 72.3833C284.344 69.9966 282.807 68.1168 280.814 66.7879L279.704 68.452ZM283.631 73.2396C284.622 75.265 285.139 77.7436 285.139 80.71H287.139C287.139 77.5164 286.583 74.7216 285.427 72.3604L283.631 73.2396ZM285.139 80.71C285.139 84.4121 284.44 87.5085 283.087 90.0386L284.851 90.9814C286.392 88.0982 287.139 84.6612 287.139 80.71H285.139ZM283.091 90.0322C281.727 92.5391 279.896 94.428 277.597 95.7297L278.582 97.4703C281.229 95.972 283.318 93.8009 284.848 90.9878L283.091 90.0322ZM277.597 95.7297C275.286 97.0377 272.681 97.7 269.759 97.7V99.7C272.997 99.7 275.946 98.9623 278.582 97.4703L277.597 95.7297ZM269.759 97.7C267.911 97.7 266.187 97.5197 264.586 97.1638L264.152 99.1162C265.911 99.507 267.781 99.7 269.759 99.7V97.7ZM264.565 97.1594C262.975 96.8414 261.481 96.4336 260.084 95.9376L259.415 97.8224C260.91 98.3531 262.497 98.7853 264.173 99.1206L264.565 97.1594ZM259.028 96.1869L257.278 98.0069L258.72 99.3931L260.47 97.5731L259.028 96.1869ZM257.999 97.7H257.579V99.7H257.999V97.7ZM270.109 69.63C268.877 69.63 267.611 69.8354 266.315 70.2342L266.903 72.1458C268.034 71.7979 269.101 71.63 270.109 71.63V69.63ZM266.34 70.227C265.073 70.5816 263.843 71.136 262.649 71.882L263.709 73.578C264.756 72.924 265.812 72.4517 266.879 72.153L266.34 70.227ZM262.179 72.73V92.47H264.179V72.73H262.179ZM262.561 93.2563C263.937 94.3369 265.337 95.1424 266.763 95.6517L267.435 93.7683C266.248 93.3442 265.035 92.6565 263.797 91.6837L262.561 93.2563ZM266.803 95.6651C268.265 96.119 269.86 96.34 271.579 96.34V94.34C270.031 94.34 268.64 94.141 267.396 93.7549L266.803 95.6651ZM271.579 96.34C273.394 96.34 275.071 95.8705 276.587 94.9296L275.532 93.2304C274.341 93.9695 273.031 94.34 271.579 94.34V96.34ZM276.607 94.9165C278.17 93.8926 279.354 92.31 280.203 90.263L278.355 89.497C277.617 91.2766 276.655 92.494 275.511 93.2435L276.607 94.9165ZM280.195 90.282C281.111 88.1951 281.539 85.5226 281.539 82.32H279.539C279.539 85.3707 279.127 87.7382 278.363 89.478L280.195 90.282ZM281.539 82.32C281.539 78.1104 280.475 74.8199 278.132 72.6901L276.786 74.1699C278.55 75.7734 279.539 78.4096 279.539 82.32H281.539ZM278.14 72.6978C275.938 70.6488 273.24 69.63 270.109 69.63V71.63C272.765 71.63 274.967 72.4779 276.778 74.1622L278.14 72.6978ZM320.479 98H319.479V99H320.479V98ZM320.479 96.88L320.108 95.9515L319.479 96.203V96.88H320.479ZM327.479 94.08L327.85 95.0085L328.479 94.757V94.08H327.479ZM327.479 55.65H328.479V54.65H327.479V55.65ZM316.069 55.65V54.65H315.43L315.161 55.2302L316.069 55.65ZM311.309 65.94V66.94H311.948L312.217 66.3598L311.309 65.94ZM310.189 65.94H309.189V66.94H310.189V65.94ZM310.189 51.8V50.8H309.189V51.8H310.189ZM351.069 51.8H352.069V50.8H351.069V51.8ZM351.069 65.94V66.94H352.069V65.94H351.069ZM349.949 65.94L349.041 66.3598L349.31 66.94H349.949V65.94ZM345.189 55.65L346.097 55.2302L345.828 54.65H345.189V55.65ZM333.779 55.65V54.65H332.779V55.65H333.779ZM333.779 94.08H332.779V94.757L333.408 95.0085L333.779 94.08ZM340.779 96.88H341.779V96.203L341.15 95.9515L340.779 96.88ZM340.779 98V99H341.779V98H340.779ZM321.479 98V96.88H319.479V98H321.479ZM320.85 97.8085L327.85 95.0085L327.108 93.1515L320.108 95.9515L320.85 97.8085ZM328.479 94.08V55.65H326.479V94.08H328.479ZM327.479 54.65H316.069V56.65H327.479V54.65ZM315.161 55.2302L310.401 65.5202L312.217 66.3598L316.977 56.0698L315.161 55.2302ZM311.309 64.94H310.189V66.94H311.309V64.94ZM311.189 65.94V51.8H309.189V65.94H311.189ZM310.189 52.8H351.069V50.8H310.189V52.8ZM350.069 51.8V65.94H352.069V51.8H350.069ZM351.069 64.94H349.949V66.94H351.069V64.94ZM350.857 65.5202L346.097 55.2302L344.281 56.0698L349.041 66.3598L350.857 65.5202ZM345.189 54.65H333.779V56.65H345.189V54.65ZM332.779 55.65V94.08H334.779V55.65H332.779ZM333.408 95.0085L340.408 97.8085L341.15 95.9515L334.15 93.1515L333.408 95.0085ZM339.779 96.88V98H341.779V96.88H339.779ZM340.779 97H320.479V99H340.779V97ZM355.728 98H354.728V99H355.728V98ZM355.728 96.88L355.275 95.9884L354.728 96.2663V96.88H355.728ZM360.138 94.64L360.591 95.5316L361.138 95.2537V94.64H360.138ZM360.138 73.78H361.138V73.3234L360.793 73.0243L360.138 73.78ZM355.938 70.14H354.938V70.5966L355.283 70.8957L355.938 70.14ZM355.938 69.65L355.532 68.7359L354.938 68.9996V69.65H355.938ZM364.618 65.8V64.8H364.406L364.212 64.8859L364.618 65.8ZM365.038 65.8L366.032 65.6947L365.938 64.8H365.038V65.8ZM365.668 71.75L364.673 71.8553L364.768 72.75H365.668V71.75ZM365.948 71.75V72.75H366.504L366.797 72.2779L365.948 71.75ZM368.888 67.9L369.576 68.626L369.577 68.625L368.888 67.9ZM371.478 66.22L371.76 67.1794L371.786 67.1719L371.811 67.163L371.478 66.22ZM375.118 66.01L374.831 66.9678L374.843 66.9714L374.855 66.9748L375.118 66.01ZM376.378 66.43L376.792 65.5196L376.782 65.5151L376.772 65.5109L376.378 66.43ZM377.778 67.27L377.164 68.0594L377.184 68.0748L377.204 68.0892L377.778 67.27ZM378.198 69.65L377.284 69.2439L377.278 69.2579L377.272 69.2721L378.198 69.65ZM376.798 73.08V74.08H377.47L377.724 73.4579L376.798 73.08ZM376.308 73.08L375.941 74.0102L376.118 74.08H376.308V73.08ZM373.648 72.03L373.234 72.9404L373.257 72.9509L373.281 72.9602L373.648 72.03ZM372.108 71.61L372.008 72.6051L372.017 72.6059L372.108 71.61ZM365.738 74.55L364.909 73.9909L364.738 74.2443V74.55H365.738ZM365.738 94.64H364.738V95.2862L365.327 95.5517L365.738 94.64ZM370.708 96.88H371.708V96.2338L371.119 95.9683L370.708 96.88ZM370.708 98V99H371.708V98H370.708ZM356.728 98V96.88H354.728V98H356.728ZM356.181 97.7716L360.591 95.5316L359.685 93.7484L355.275 95.9884L356.181 97.7716ZM361.138 94.64V73.78H359.138V94.64H361.138ZM360.793 73.0243L356.593 69.3843L355.283 70.8957L359.483 74.5357L360.793 73.0243ZM356.938 70.14V69.65H354.938V70.14H356.938ZM356.343 70.5641L365.023 66.7141L364.212 64.8859L355.532 68.7359L356.343 70.5641ZM364.618 66.8H365.038V64.8H364.618V66.8ZM364.043 65.9053L364.673 71.8553L366.662 71.6447L366.032 65.6947L364.043 65.9053ZM365.668 72.75H365.948V70.75H365.668V72.75ZM366.797 72.2779C367.851 70.5827 368.778 69.3811 369.576 68.626L368.2 67.174C367.224 68.0989 366.191 69.464 365.099 71.2221L366.797 72.2779ZM369.577 68.625C370.453 67.7926 371.18 67.3498 371.76 67.1794L371.196 65.2606C370.189 65.5568 369.19 66.2341 368.199 67.175L369.577 68.625ZM371.811 67.163C372.504 66.9184 373.185 66.8 373.858 66.8V64.8C372.944 64.8 372.039 64.9616 371.145 65.277L371.811 67.163ZM373.858 66.8C374.109 66.8 374.43 66.8478 374.831 66.9678L375.405 65.0522C374.872 64.8922 374.353 64.8 373.858 64.8V66.8ZM374.855 66.9748C375.343 67.1079 375.715 67.2339 375.984 67.3491L376.772 65.5109C376.387 65.3461 375.919 65.1921 375.381 65.0452L374.855 66.9748ZM375.964 67.3404C376.41 67.5433 376.809 67.7835 377.164 68.0594L378.392 66.4806C377.907 66.1032 377.372 65.7834 376.792 65.5196L375.964 67.3404ZM377.204 68.0892C377.359 68.1972 377.427 68.2803 377.455 68.325C377.477 68.3608 377.478 68.3767 377.478 68.39H379.478C379.478 67.5346 378.981 66.8918 378.351 66.4508L377.204 68.0892ZM377.478 68.39C377.478 68.6573 377.419 68.9395 377.284 69.2439L379.112 70.0561C379.35 69.5204 379.478 68.9626 379.478 68.39H377.478ZM377.272 69.2721L375.872 72.7021L377.724 73.4579L379.124 70.0279L377.272 69.2721ZM376.798 72.08H376.308V74.08H376.798V72.08ZM376.675 72.1498L374.015 71.0998L373.281 72.9602L375.941 74.0102L376.675 72.1498ZM374.062 71.1196C373.456 70.8442 372.834 70.6718 372.198 70.6141L372.017 72.6059C372.409 72.6415 372.813 72.7491 373.234 72.9404L374.062 71.1196ZM372.207 70.615C371.708 70.565 371.208 70.54 370.708 70.54V72.54C371.141 72.54 371.575 72.5617 372.008 72.605L372.207 70.615ZM370.708 70.54C368.336 70.54 366.398 71.7821 364.909 73.9909L366.567 75.1091C367.784 73.3046 369.16 72.54 370.708 72.54V70.54ZM364.738 74.55V94.64H366.738V74.55H364.738ZM365.327 95.5517L370.297 97.7917L371.119 95.9683L366.149 93.7283L365.327 95.5517ZM369.708 96.88V98H371.708V96.88H369.708ZM370.708 97H355.728V99H370.708V97ZM386.054 96.81L385.383 97.5521L385.39 97.5582L385.397 97.5641L386.054 96.81ZM386.404 85.47L385.706 84.7532L385.697 84.7629L386.404 85.47ZM395.014 81.55L394.788 80.5758L394.787 80.576L395.014 81.55ZM401.664 80.01L401.889 80.9842L402.664 80.8049V80.01H401.664ZM399.704 70.84L399.024 71.5738L399.038 71.5868L399.053 71.5993L399.704 70.84ZM391.654 70.56L392.454 71.16L392.461 71.1507L392.467 71.1412L391.654 70.56ZM390.604 76.3L391.311 77.0071L391.604 76.7142V76.3H390.604ZM390.254 76.65V77.65H390.668L390.961 77.3571L390.254 76.65ZM385.144 76.3L384.437 77.0071L384.469 77.0392L384.504 77.0682L385.144 76.3ZM385.704 71.54L386.574 72.0321L386.574 72.0321L385.704 71.54ZM388.504 68.74L389.037 69.5863L389.045 69.5812L388.504 68.74ZM392.564 66.64L392.203 65.7074L392.192 65.7115L392.564 66.64ZM401.944 66.5L401.654 67.4571L401.662 67.4594L401.944 66.5ZM405.794 68.88L405.041 69.5385L405.048 69.5465L405.055 69.5543L405.794 68.88ZM407.264 93.31H406.264V93.7242L406.557 94.0171L407.264 93.31ZM408.664 94.15L409.023 93.2167L409.023 93.2167L408.664 94.15ZM413.844 94.5L414.398 93.668L414.147 93.5H413.844V94.5ZM414.054 94.64H415.054V94.1048L414.608 93.808L414.054 94.64ZM414.054 94.85L414.932 95.3289L415.054 95.105V94.85H414.054ZM411.534 97.58L412.105 98.4009L412.112 98.396L411.534 97.58ZM403.974 97.58L403.307 98.3252L403.328 98.3436L403.349 98.3609L403.974 97.58ZM402.084 94.5L403.043 94.2159L402.83 93.5H402.084V94.5ZM401.664 94.5V93.5H401.25L400.957 93.7929L401.664 94.5ZM397.114 97.51L396.714 96.5933L396.705 96.5972L397.114 97.51ZM397.884 94.01L397.68 93.031L397.671 93.0328L397.884 94.01ZM401.664 92.75L402.061 93.6676L402.664 93.4065V92.75H401.664ZM401.664 82.39H402.664V81.1851L401.479 81.4071L401.664 82.39ZM393.474 84.63L393.871 85.5479L393.881 85.5434L393.891 85.5387L393.474 84.63ZM390.114 87.08L390.979 87.581L390.979 87.581L390.114 87.08ZM391.514 97.7C389.525 97.7 387.949 97.1347 386.711 96.0559L385.397 97.5641C387.052 99.0053 389.116 99.7 391.514 99.7V97.7ZM386.724 96.0679C385.524 94.984 384.884 93.4774 384.884 91.42H382.884C382.884 93.9359 383.69 96.0226 385.383 97.5521L386.724 96.0679ZM384.884 91.42C384.884 89.4099 385.61 87.6777 387.111 86.1771L385.697 84.7629C383.837 86.6223 382.884 88.8568 382.884 91.42H384.884ZM387.101 86.1867C388.634 84.6948 391.293 83.4419 395.24 82.524L394.787 80.576C390.707 81.5248 387.626 82.8852 385.706 84.7533L387.101 86.1867ZM395.239 82.5242L401.889 80.9842L401.438 79.0358L394.788 80.5758L395.239 82.5242ZM402.664 80.01V74.9H400.664V80.01H402.664ZM402.664 74.9C402.664 72.9946 401.862 71.3725 400.355 70.0807L399.053 71.5993C400.159 72.5475 400.664 73.6321 400.664 74.9H402.664ZM400.383 70.1062C398.949 68.7781 397.263 68.09 395.364 68.09V70.09C396.731 70.09 397.939 70.5686 399.024 71.5738L400.383 70.1062ZM395.364 68.09C393.428 68.09 391.805 68.6279 390.84 69.9788L392.467 71.1412C392.903 70.5321 393.753 70.09 395.364 70.09V68.09ZM390.854 69.96C389.984 71.1192 389.604 72.6138 389.604 74.34H391.604C391.604 72.8929 391.923 71.8675 392.454 71.16L390.854 69.96ZM389.604 74.34V76.3H391.604V74.34H389.604ZM389.897 75.5929L389.547 75.9429L390.961 77.3571L391.311 77.0071L389.897 75.5929ZM390.254 75.65H386.614V77.65H390.254V75.65ZM386.614 75.65C386.314 75.65 386.099 75.6245 385.953 75.5897C385.804 75.5542 385.769 75.5193 385.784 75.5318L384.504 77.0682C385.067 77.5381 385.866 77.65 386.614 77.65V75.65ZM385.851 75.5929C385.933 75.6746 385.9 75.7026 385.858 75.5101C385.821 75.3379 385.794 75.0719 385.794 74.69H383.794C383.794 75.1481 383.825 75.5704 383.904 75.9349C383.979 76.2791 384.122 76.692 384.437 77.0071L385.851 75.5929ZM385.794 74.69C385.794 73.8674 386.035 72.9854 386.574 72.0321L384.833 71.0479C384.159 72.2413 383.794 73.4593 383.794 74.69H385.794ZM386.574 72.0321C387.084 71.13 387.888 70.3095 389.037 69.5862L387.971 67.8938C386.6 68.7572 385.537 69.8033 384.833 71.0479L386.574 72.0321ZM389.045 69.5812C390.299 68.7746 391.596 68.1041 392.935 67.5685L392.192 65.7115C390.731 66.2959 389.322 67.0254 387.963 67.8988L389.045 69.5812ZM392.925 67.5726C394.25 67.0595 395.667 66.8 397.184 66.8V64.8C395.434 64.8 393.771 65.1005 392.203 65.7074L392.925 67.5726ZM397.184 66.8C398.72 66.8 400.209 67.0193 401.654 67.457L402.234 65.543C400.598 65.0474 398.914 64.8 397.184 64.8V66.8ZM401.662 67.4594C403.087 67.8786 404.2 68.577 405.041 69.5385L406.546 68.2215C405.428 66.943 403.974 66.0547 402.226 65.5406L401.662 67.4594ZM405.055 69.5543C405.816 70.3872 406.264 71.6312 406.264 73.43H408.264C408.264 71.3088 407.732 69.5195 406.532 68.2057L405.055 69.5543ZM406.264 73.43V93.31H408.264V73.43H406.264ZM406.557 94.0171C407.014 94.4744 407.617 94.8188 408.305 95.0833L409.023 93.2167C408.497 93.0145 408.167 92.799 407.971 92.6029L406.557 94.0171ZM408.305 95.0833C409.077 95.3802 410.057 95.5 411.184 95.5V93.5C410.164 93.5 409.464 93.3865 409.023 93.2167L408.305 95.0833ZM411.184 95.5H413.844V93.5H411.184V95.5ZM413.289 95.332L413.499 95.472L414.608 93.808L414.398 93.668L413.289 95.332ZM413.054 94.64V94.85H415.054V94.64H413.054ZM413.176 94.3711C412.7 95.2427 411.973 96.0435 410.956 96.764L412.112 98.396C413.335 97.5298 414.287 96.5106 414.932 95.3289L413.176 94.3711ZM410.963 96.7591C410.09 97.3662 408.971 97.7 407.544 97.7V99.7C409.29 99.7 410.831 99.2871 412.105 98.4009L410.963 96.7591ZM407.544 97.7C406.275 97.7 405.319 97.3759 404.598 96.7991L403.349 98.3609C404.495 99.2774 405.919 99.7 407.544 99.7V97.7ZM404.641 96.8348C403.906 96.1778 403.369 95.3173 403.043 94.2159L401.125 94.7841C401.545 96.2027 402.268 97.3955 403.307 98.3252L404.641 96.8348ZM402.084 93.5H401.664V95.5H402.084V93.5ZM400.957 93.7929C399.845 94.905 398.437 95.8422 396.714 96.5933L397.513 98.4267C399.43 97.5911 401.056 96.5217 402.371 95.2071L400.957 93.7929ZM396.705 96.5972C395.062 97.3325 393.334 97.7 391.514 97.7V99.7C393.613 99.7 395.619 99.2742 397.522 98.4228L396.705 96.5972ZM388.344 90.02C388.344 91.6763 388.854 93.0824 390.019 94.0457C391.148 94.9789 392.731 95.36 394.594 95.36V93.36C392.956 93.36 391.915 93.0177 391.293 92.5043C390.709 92.0209 390.344 91.2571 390.344 90.02H388.344ZM394.594 95.36C395.784 95.36 396.952 95.236 398.096 94.9872L397.671 93.0328C396.669 93.2507 395.644 93.36 394.594 93.36V95.36ZM398.088 94.989C399.292 94.7381 400.618 94.2929 402.061 93.6676L401.266 91.8324C399.909 92.4205 398.716 92.8152 397.68 93.031L398.088 94.989ZM402.664 92.75V82.39H400.664V92.75H402.664ZM401.479 81.4071C397.729 82.1104 394.899 82.8746 393.056 83.7213L393.891 85.5387C395.502 84.7987 398.132 84.0696 401.848 83.3729L401.479 81.4071ZM393.077 83.7121C391.297 84.482 389.927 85.4063 389.248 86.579L390.979 87.581C391.327 86.9804 392.198 86.2713 393.871 85.5479L393.077 83.7121ZM389.248 86.579C388.643 87.6253 388.344 88.7794 388.344 90.02H390.344C390.344 89.1139 390.558 88.3081 390.979 87.581L389.248 86.579ZM422.262 94.57L422.987 93.8816L422.987 93.8816L422.262 94.57ZM420.442 74.41L419.56 73.9386L419.557 73.9443L420.442 74.41ZM426.252 68.11L426.776 68.9617L426.788 68.9543L426.252 68.11ZM439.902 66.78L439.556 67.7183L439.567 67.7224L439.578 67.7262L439.902 66.78ZM443.962 69.23L444.727 68.5859L444.714 68.5714L444.702 68.5573L443.962 69.23ZM444.172 73.01L443.562 72.2174L443.545 72.2309L443.528 72.2451L444.172 73.01ZM441.512 75.25V76.25H441.877L442.156 76.0149L441.512 75.25ZM441.022 75.25L440.218 75.8444L440.517 76.25H441.022V75.25ZM438.642 72.03L439.446 71.4356L439.442 71.43L438.642 72.03ZM435.982 69.79L435.473 70.6509L435.496 70.6644L435.519 70.6766L435.982 69.79ZM426.042 71.96L425.233 71.3718L425.231 71.3752L426.042 71.96ZM424.992 86.8L424.055 87.1487L424.057 87.156L424.992 86.8ZM428.702 91.63L428.112 92.4378L428.125 92.4467L428.137 92.4553L428.702 91.63ZM445.012 90.65V89.65H444.759L444.536 89.7703L445.012 90.65ZM445.222 90.65H446.222V89.65H445.222V90.65ZM445.222 91.35L446.104 91.8217L446.222 91.6006V91.35H445.222ZM440.392 96.53L439.833 95.7007L439.824 95.7065L440.392 96.53ZM432.972 97.7C428.662 97.7 425.376 96.3981 422.987 93.8816L421.536 95.2584C424.375 98.2486 428.228 99.7 432.972 99.7V97.7ZM422.987 93.8816C420.583 91.3489 419.342 87.9729 419.342 83.65H417.342C417.342 88.3804 418.714 92.2844 421.536 95.2584L422.987 93.8816ZM419.342 83.65C419.342 80.2855 420.014 77.3702 421.327 74.8757L419.557 73.9443C418.07 76.7698 417.342 80.0145 417.342 83.65H419.342ZM421.324 74.8814C422.694 72.3185 424.512 70.355 426.776 68.9617L425.728 67.2583C423.139 68.8516 421.083 71.0882 419.56 73.9386L421.324 74.8814ZM426.788 68.9543C429.045 67.5218 431.587 66.8 434.442 66.8V64.8C431.23 64.8 428.312 65.6182 425.716 67.2657L426.788 68.9543ZM434.442 66.8C436.189 66.8 437.892 67.1053 439.556 67.7183L440.248 65.8417C438.365 65.1481 436.428 64.8 434.442 64.8V66.8ZM439.578 67.7262C441.246 68.2966 442.435 69.037 443.222 69.9027L444.702 68.5573C443.622 67.3697 442.105 66.4767 440.225 65.8338L439.578 67.7262ZM443.197 69.8741C443.544 70.286 443.777 70.6236 443.919 70.8906C444.067 71.1676 444.082 71.3031 444.082 71.33H446.082C446.082 70.8435 445.91 70.3724 445.684 69.9494C445.453 69.5164 445.127 69.0606 444.727 68.5859L443.197 69.8741ZM444.082 71.33C444.082 71.6174 443.97 71.9034 443.562 72.2174L444.782 73.8026C445.587 73.1833 446.082 72.3493 446.082 71.33H444.082ZM443.528 72.2451L440.868 74.4851L442.156 76.0149L444.816 73.7749L443.528 72.2451ZM441.512 74.25H441.022V76.25H441.512V74.25ZM441.826 74.6556L439.446 71.4356L437.838 72.6244L440.218 75.8444L441.826 74.6556ZM439.442 71.43C438.649 70.3726 437.645 69.5299 436.444 68.9034L435.519 70.6766C436.465 71.1701 437.235 71.8208 437.842 72.63L439.442 71.43ZM436.491 68.9291C435.271 68.2085 433.8 67.88 432.132 67.88V69.88C433.544 69.88 434.639 70.1582 435.473 70.6509L436.491 68.9291ZM432.132 67.88C429.249 67.88 426.917 69.0564 425.233 71.3718L426.851 72.5482C428.153 70.7569 429.881 69.88 432.132 69.88V67.88ZM425.231 71.3752C423.616 73.6154 422.872 76.6744 422.872 80.43H424.872C424.872 76.9056 425.575 74.318 426.853 72.5448L425.231 71.3752ZM422.872 80.43C422.872 82.7835 423.264 85.0254 424.055 87.1487L425.929 86.4513C425.226 84.5613 424.872 82.5565 424.872 80.43H422.872ZM424.057 87.156C424.874 89.3004 426.233 91.0661 428.112 92.4378L429.291 90.8222C427.718 89.6739 426.603 88.2196 425.926 86.444L424.057 87.156ZM428.137 92.4553C430.135 93.8219 432.784 94.45 435.982 94.45V92.45C433.02 92.45 430.816 91.8647 429.266 90.8047L428.137 92.4553ZM435.982 94.45C438.78 94.45 441.959 93.4371 445.487 91.5297L444.536 89.7703C441.158 91.5962 438.317 92.45 435.982 92.45V94.45ZM445.012 91.65H445.222V89.65H445.012V91.65ZM444.222 90.65V91.35H446.222V90.65H444.222ZM444.34 90.8783C443.354 92.7225 441.863 94.3325 439.833 95.7007L440.951 97.3593C443.214 95.8342 444.943 93.9908 446.104 91.8217L444.34 90.8783ZM439.824 95.7065C437.91 97.025 435.64 97.7 432.972 97.7V99.7C435.997 99.7 438.673 98.9283 440.959 97.3535L439.824 95.7065ZM451.698 98H450.698V99H451.698V98ZM451.698 96.88L451.245 95.9884L450.698 96.2663V96.88H451.698ZM456.108 94.64L456.561 95.5316L457.108 95.2537V94.64H456.108ZM456.108 53.48H457.108V53.0234L456.763 52.7243L456.108 53.48ZM451.908 49.84H450.908V50.2966L451.253 50.5957L451.908 49.84ZM451.908 49.35L451.528 48.4249L450.908 48.6795V49.35H451.908ZM461.288 45.5V44.5H461.091L460.908 44.5749L461.288 45.5ZM461.708 45.5H462.708V44.5H461.708V45.5ZM461.708 80.15H460.708V82.314L462.356 80.9116L461.708 80.15ZM472.978 70.56L473.626 71.3216L473.978 71.0221V70.56H472.978ZM472.978 70.14H473.978V69.6338L473.57 69.3341L472.978 70.14ZM469.548 67.62H468.548V68.1262L468.956 68.4259L469.548 67.62ZM469.548 66.5V65.5H468.548V66.5H469.548ZM482.848 66.5H483.848V65.5H482.848V66.5ZM482.848 67.62L483.328 68.4974L483.848 68.2129V67.62H482.848ZM478.368 70.07L477.888 69.1926L477.82 69.23L477.758 69.2776L478.368 70.07ZM466.818 78.96L466.208 78.1676L465.347 78.8299L466.078 79.633L466.818 78.96ZM480.958 94.5L480.218 95.173L480.335 95.3016L480.489 95.3831L480.958 94.5ZM485.438 96.88H486.438V96.2789L485.907 95.9969L485.438 96.88ZM485.438 98V99H486.438V98H485.438ZM476.198 98L475.391 98.59L475.69 99H476.198V98ZM473.538 94.36L474.345 93.77L474.315 93.7291L474.282 93.6915L473.538 94.36ZM461.708 81.2L462.452 80.5315L460.708 78.5917V81.2H461.708ZM461.708 94.85H460.708V95.5217L461.33 95.7758L461.708 94.85ZM466.678 96.88H467.678V96.2083L467.056 95.9542L466.678 96.88ZM466.678 98V99H467.678V98H466.678ZM452.698 98V96.88H450.698V98H452.698ZM452.151 97.7716L456.561 95.5316L455.655 93.7484L451.245 95.9884L452.151 97.7716ZM457.108 94.64V53.48H455.108V94.64H457.108ZM456.763 52.7243L452.563 49.0843L451.253 50.5957L455.453 54.2357L456.763 52.7243ZM452.908 49.84V49.35H450.908V49.84H452.908ZM452.288 50.2751L461.668 46.4251L460.908 44.5749L451.528 48.4249L452.288 50.2751ZM461.288 46.5H461.708V44.5H461.288V46.5ZM460.708 45.5V80.15H462.708V45.5H460.708ZM462.356 80.9116L473.626 71.3216L472.33 69.7984L461.06 79.3884L462.356 80.9116ZM473.978 70.56V70.14H471.978V70.56H473.978ZM473.57 69.3341L470.14 66.8141L468.956 68.4259L472.386 70.9459L473.57 69.3341ZM470.548 67.62V66.5H468.548V67.62H470.548ZM469.548 67.5H482.848V65.5H469.548V67.5ZM481.848 66.5V67.62H483.848V66.5H481.848ZM482.368 66.7426L477.888 69.1926L478.848 70.9474L483.328 68.4974L482.368 66.7426ZM477.758 69.2776L466.208 78.1676L467.428 79.7524L478.978 70.8624L477.758 69.2776ZM466.078 79.633L480.218 95.173L481.698 93.827L467.558 78.287L466.078 79.633ZM480.489 95.3831L484.969 97.7631L485.907 95.9969L481.427 93.6169L480.489 95.3831ZM484.438 96.88V98H486.438V96.88H484.438ZM485.438 97H476.198V99H485.438V97ZM477.005 97.41L474.345 93.77L472.731 94.95L475.391 98.59L477.005 97.41ZM474.282 93.6915L462.452 80.5315L460.964 81.8685L472.794 95.0285L474.282 93.6915ZM460.708 81.2V94.85H462.708V81.2H460.708ZM461.33 95.7758L466.3 97.8058L467.056 95.9542L462.086 93.9242L461.33 95.7758ZM465.678 96.88V98H467.678V96.88H465.678ZM466.678 97H451.698V99H466.678V97ZM493.424 94.57L494.149 93.8816L494.149 93.8816L493.424 94.57ZM491.534 74.41L490.646 73.9506L490.643 73.9565L491.534 74.41ZM496.994 68.11L497.549 68.9421L497.553 68.9394L496.994 68.11ZM513.094 69.65L512.32 70.2833L512.327 70.2916L513.094 69.65ZM516.314 80.71L517.021 81.4171L517.314 81.1242V80.71H516.314ZM515.964 81.06V82.06H516.378L516.671 81.7671L515.964 81.06ZM495.034 81.06V80.06H494.012L494.034 81.0817L495.034 81.06ZM496.294 87.15L495.37 87.533L495.374 87.5411L496.294 87.15ZM500.074 91.7L499.514 92.5287L499.524 92.5354L500.074 91.7ZM516.174 90.65V89.65H515.921L515.698 89.7703L516.174 90.65ZM516.384 90.65H517.384V89.65H516.384V90.65ZM516.384 91.35L517.266 91.8217L517.384 91.6006V91.35H516.384ZM511.554 96.53L510.995 95.7007L510.987 95.7065L511.554 96.53ZM497.764 71.26L497.025 70.5862L497.024 70.5873L497.764 71.26ZM495.174 77.84L494.18 77.726L494.053 78.84H495.174V77.84ZM510.994 77.84V78.84H512.169L511.981 77.6803L510.994 77.84ZM508.264 70.98L507.521 71.649L507.527 71.6557L507.533 71.6623L508.264 70.98ZM504.134 97.7C499.824 97.7 496.538 96.3981 494.149 93.8816L492.699 95.2584C495.537 98.2486 499.39 99.7 504.134 99.7V97.7ZM494.149 93.8816C491.745 91.3489 490.504 87.9729 490.504 83.65H488.504C488.504 88.3804 489.876 92.2844 492.699 95.2584L494.149 93.8816ZM490.504 83.65C490.504 80.2804 491.155 77.3606 492.425 74.8635L490.643 73.9565C489.206 76.7794 488.504 80.0196 488.504 83.65H490.504ZM492.422 74.8694C493.755 72.2931 495.467 70.3296 497.549 68.942L496.439 67.2779C494.041 68.8771 492.113 71.1136 490.646 73.9506L492.422 74.8694ZM497.553 68.9394C499.68 67.5063 501.96 66.8 504.414 66.8V64.8C501.547 64.8 498.881 65.6337 496.435 67.2806L497.553 68.9394ZM504.414 66.8C507.839 66.8 510.433 67.9766 512.32 70.2832L513.868 69.0168C511.555 66.1901 508.363 64.8 504.414 64.8V66.8ZM512.327 70.2916C514.269 72.614 515.314 76.0376 515.314 80.71H517.314C517.314 75.7691 516.212 71.8193 513.861 69.0084L512.327 70.2916ZM515.607 80.0029L515.257 80.3529L516.671 81.7671L517.021 81.4171L515.607 80.0029ZM515.964 80.06H495.034V82.06H515.964V80.06ZM494.034 81.0817C494.083 83.3479 494.528 85.5008 495.37 87.533L497.218 86.767C496.474 84.9725 496.078 83.0655 496.034 81.0383L494.034 81.0817ZM495.374 87.5411C496.245 89.5904 497.632 91.2571 499.514 92.5286L500.634 90.8714C499.062 89.8096 497.93 88.4429 497.214 86.7589L495.374 87.5411ZM499.524 92.5354C501.512 93.8434 504.081 94.45 507.144 94.45V92.45C504.327 92.45 502.182 91.8899 500.624 90.8646L499.524 92.5354ZM507.144 94.45C509.942 94.45 513.121 93.4371 516.649 91.5297L515.698 89.7703C512.32 91.5962 509.479 92.45 507.144 92.45V94.45ZM516.174 91.65H516.384V89.65H516.174V91.65ZM515.384 90.65V91.35H517.384V90.65H515.384ZM515.502 90.8783C514.516 92.7225 513.025 94.3325 510.995 95.7007L512.113 97.3593C514.376 95.8342 516.105 93.9908 517.266 91.8217L515.502 90.8783ZM510.987 95.7065C509.073 97.025 506.802 97.7 504.134 97.7V99.7C507.159 99.7 509.835 98.9283 512.121 97.3535L510.987 95.7065ZM503.294 67.88C500.786 67.88 498.67 68.7818 497.025 70.5862L498.503 71.9338C499.751 70.5649 501.321 69.88 503.294 69.88V67.88ZM497.024 70.5873C495.439 72.3311 494.522 74.7478 494.18 77.726L496.167 77.954C496.479 75.2389 497.289 73.2689 498.504 71.9327L497.024 70.5873ZM495.174 78.84H510.994V76.84H495.174V78.84ZM511.981 77.6803C511.455 74.4303 510.501 71.911 508.995 70.2977L507.533 71.6623C508.64 72.849 509.506 74.903 510.007 77.9997L511.981 77.6803ZM509.007 70.311C507.539 68.6799 505.602 67.88 503.294 67.88V69.88C505.092 69.88 506.469 70.4801 507.521 71.649L509.007 70.311ZM523.55 98H522.55V99H523.55V98ZM523.55 96.88L523.097 95.9884L522.55 96.2663V96.88H523.55ZM527.96 94.64L528.413 95.5316L528.96 95.2537V94.64H527.96ZM527.96 73.78H528.96V73.3234L528.615 73.0243L527.96 73.78ZM523.76 70.14H522.76V70.5966L523.105 70.8957L523.76 70.14ZM523.76 69.65L523.355 68.7359L522.76 68.9996V69.65H523.76ZM532.44 65.8V64.8H532.228L532.035 64.8859L532.44 65.8ZM532.86 65.8L533.855 65.6947L533.76 64.8H532.86V65.8ZM533.49 71.75L532.496 71.8553L532.59 72.75H533.49V71.75ZM533.77 71.75V72.75H534.326L534.619 72.2779L533.77 71.75ZM536.71 67.9L537.398 68.626L537.399 68.625L536.71 67.9ZM539.3 66.22L539.582 67.1794L539.608 67.1719L539.633 67.163L539.3 66.22ZM542.94 66.01L542.653 66.9678L542.665 66.9714L542.677 66.9748L542.94 66.01ZM544.2 66.43L544.614 65.5196L544.604 65.5151L544.594 65.5109L544.2 66.43ZM545.6 67.27L544.986 68.0594L545.006 68.0748L545.027 68.0892L545.6 67.27ZM546.02 69.65L545.106 69.2439L545.1 69.2579L545.094 69.2721L546.02 69.65ZM544.62 73.08V74.08H545.292L545.546 73.4579L544.62 73.08ZM544.13 73.08L543.763 74.0102L543.94 74.08H544.13V73.08ZM541.47 72.03L541.056 72.9404L541.079 72.9509L541.103 72.9602L541.47 72.03ZM539.93 71.61L539.831 72.6051L539.84 72.6059L539.93 71.61ZM533.56 74.55L532.731 73.9909L532.56 74.2443V74.55H533.56ZM533.56 94.64H532.56V95.2862L533.149 95.5517L533.56 94.64ZM538.53 96.88H539.53V96.2338L538.941 95.9683L538.53 96.88ZM538.53 98V99H539.53V98H538.53ZM524.55 98V96.88H522.55V98H524.55ZM524.003 97.7716L528.413 95.5316L527.507 93.7484L523.097 95.9884L524.003 97.7716ZM528.96 94.64V73.78H526.96V94.64H528.96ZM528.615 73.0243L524.415 69.3843L523.105 70.8957L527.305 74.5357L528.615 73.0243ZM524.76 70.14V69.65H522.76V70.14H524.76ZM524.166 70.5641L532.846 66.7141L532.035 64.8859L523.355 68.7359L524.166 70.5641ZM532.44 66.8H532.86V64.8H532.44V66.8ZM531.866 65.9053L532.496 71.8553L534.485 71.6447L533.855 65.6947L531.866 65.9053ZM533.49 72.75H533.77V70.75H533.49V72.75ZM534.619 72.2779C535.673 70.5827 536.601 69.3811 537.398 68.626L536.022 67.174C535.046 68.0989 534.014 69.464 532.921 71.2221L534.619 72.2779ZM537.399 68.625C538.275 67.7926 539.003 67.3498 539.582 67.1794L539.018 65.2606C538.011 65.5568 537.012 66.2341 536.021 67.175L537.399 68.625ZM539.633 67.163C540.326 66.9184 541.007 66.8 541.68 66.8V64.8C540.767 64.8 539.861 64.9616 538.967 65.277L539.633 67.163ZM541.68 66.8C541.932 66.8 542.253 66.8478 542.653 66.9678L543.228 65.0522C542.694 64.8922 542.175 64.8 541.68 64.8V66.8ZM542.677 66.9748C543.165 67.1079 543.537 67.2339 543.806 67.3491L544.594 65.5109C544.21 65.3461 543.742 65.1921 543.203 65.0452L542.677 66.9748ZM543.786 67.3404C544.233 67.5433 544.632 67.7835 544.986 68.0594L546.214 66.4806C545.729 66.1032 545.194 65.7834 544.614 65.5196L543.786 67.3404ZM545.027 68.0892C545.181 68.1972 545.249 68.2803 545.277 68.325C545.3 68.3608 545.3 68.3767 545.3 68.39H547.3C547.3 67.5346 546.804 66.8918 546.174 66.4508L545.027 68.0892ZM545.3 68.39C545.3 68.6573 545.242 68.9395 545.106 69.2439L546.934 70.0561C547.172 69.5204 547.3 68.9626 547.3 68.39H545.3ZM545.094 69.2721L543.694 72.7021L545.546 73.4579L546.946 70.0279L545.094 69.2721ZM544.62 72.08H544.13V74.08H544.62V72.08ZM544.497 72.1498L541.837 71.0998L541.103 72.9602L543.763 74.0102L544.497 72.1498ZM541.884 71.1196C541.278 70.8442 540.656 70.6718 540.021 70.6141L539.84 72.6059C540.231 72.6415 540.636 72.7491 541.056 72.9404L541.884 71.1196ZM540.03 70.615C539.53 70.565 539.03 70.54 538.53 70.54V72.54C538.963 72.54 539.397 72.5617 539.831 72.605L540.03 70.615ZM538.53 70.54C536.158 70.54 534.221 71.7821 532.731 73.9909L534.389 75.1091C535.606 73.3046 536.982 72.54 538.53 72.54V70.54ZM532.56 74.55V94.64H534.56V74.55H532.56ZM533.149 95.5517L538.119 97.7917L538.941 95.9683L533.971 93.7283L533.149 95.5517ZM537.53 96.88V98H539.53V96.88H537.53ZM538.53 97H523.55V99H538.53V97Z" fill="#03449D"/>
</svg>
